<svg width="590" height="590" viewBox="0 0 590 590" fill="none" xmlns="http://www.w3.org/2000/svg">
<rect width="590" height="590" fill="black"/>
<line x1="294.63" y1="153.396" x2="294.63" y2="295.5" stroke="white" stroke-width="3.73958"/>
<line x1="294.63" y1="295.5" x2="294.63" y2="437.604" stroke="white" stroke-width="3.73958"/>
<line x1="436.734" y1="291.76" x2="436.734" y2="433.865" stroke="white" stroke-width="3.73958"/>
<line x1="152.526" y1="295.5" x2="152.526" y2="437.604" stroke="white" stroke-width="3.73958"/>
<line x1="292.76" y1="293.63" x2="434.865" y2="293.63" stroke="white" stroke-width="3.73958"/>
<line x1="150.656" y1="293.63" x2="292.76" y2="293.63" stroke="white" stroke-width="3.73958"/>
<path d="M247.545 468.355C246.322 468.355 245.268 468.066 244.384 467.488C243.5 466.911 242.82 466.114 242.344 465.1C241.868 464.086 241.63 462.927 241.63 461.624C241.63 460.298 241.874 459.128 242.361 458.114C242.854 457.094 243.54 456.298 244.418 455.726C245.302 455.148 246.333 454.859 247.511 454.859C248.429 454.859 249.257 455.029 249.993 455.369C250.73 455.709 251.333 456.185 251.803 456.797C252.274 457.409 252.566 458.122 252.679 458.938H250.673C250.52 458.343 250.18 457.817 249.653 457.358C249.132 456.893 248.429 456.661 247.545 456.661C246.764 456.661 246.078 456.865 245.489 457.273C244.905 457.675 244.449 458.244 244.12 458.981C243.797 459.712 243.636 460.57 243.636 461.556C243.636 462.565 243.795 463.443 244.112 464.191C244.435 464.939 244.888 465.519 245.472 465.933C246.061 466.347 246.752 466.554 247.545 466.554C248.067 466.554 248.54 466.463 248.965 466.282C249.39 466.1 249.75 465.84 250.044 465.5C250.339 465.16 250.548 464.752 250.673 464.276H252.679C252.566 465.046 252.285 465.74 251.837 466.358C251.396 466.97 250.809 467.457 250.078 467.82C249.353 468.177 248.509 468.355 247.545 468.355ZM260.914 468.355C259.736 468.355 258.702 468.075 257.812 467.514C256.928 466.953 256.237 466.168 255.739 465.16C255.246 464.151 254.999 462.973 254.999 461.624C254.999 460.264 255.246 459.077 255.739 458.063C256.237 457.049 256.928 456.261 257.812 455.7C258.702 455.139 259.736 454.859 260.914 454.859C262.093 454.859 263.124 455.139 264.008 455.7C264.898 456.261 265.589 457.049 266.082 458.063C266.581 459.077 266.83 460.264 266.83 461.624C266.83 462.973 266.581 464.151 266.082 465.16C265.589 466.168 264.898 466.953 264.008 467.514C263.124 468.075 262.093 468.355 260.914 468.355ZM260.914 466.554C261.81 466.554 262.546 466.324 263.124 465.865C263.702 465.406 264.13 464.803 264.408 464.055C264.685 463.307 264.824 462.497 264.824 461.624C264.824 460.752 264.685 459.938 264.408 459.185C264.13 458.431 263.702 457.822 263.124 457.358C262.546 456.893 261.81 456.661 260.914 456.661C260.019 456.661 259.283 456.893 258.705 457.358C258.127 457.822 257.699 458.431 257.421 459.185C257.144 459.938 257.005 460.752 257.005 461.624C257.005 462.497 257.144 463.307 257.421 464.055C257.699 464.803 258.127 465.406 258.705 465.865C259.283 466.324 260.019 466.554 260.914 466.554ZM271.897 460.23V468.083H269.892V455.029H271.829V457.069H271.999C272.305 456.406 272.77 455.873 273.393 455.471C274.016 455.063 274.821 454.859 275.807 454.859C276.691 454.859 277.464 455.04 278.127 455.403C278.79 455.76 279.306 456.304 279.674 457.035C280.042 457.76 280.226 458.678 280.226 459.788V468.083H278.221V459.924C278.221 458.899 277.954 458.1 277.422 457.528C276.889 456.95 276.158 456.661 275.229 456.661C274.589 456.661 274.016 456.799 273.512 457.077C273.014 457.355 272.62 457.76 272.331 458.292C272.042 458.825 271.897 459.471 271.897 460.23ZM289.569 455.029V456.729H282.804V455.029H289.569ZM284.776 451.901H286.781V464.344C286.781 464.91 286.863 465.335 287.028 465.619C287.198 465.896 287.413 466.083 287.674 466.18C287.94 466.27 288.221 466.316 288.515 466.316C288.736 466.316 288.917 466.304 289.059 466.282C289.201 466.253 289.314 466.231 289.399 466.214L289.807 468.015C289.671 468.066 289.481 468.117 289.238 468.168C288.994 468.225 288.685 468.253 288.311 468.253C287.745 468.253 287.189 468.132 286.645 467.888C286.107 467.644 285.659 467.273 285.303 466.775C284.951 466.276 284.776 465.647 284.776 464.888V451.901ZM296.428 468.389C295.601 468.389 294.85 468.234 294.176 467.922C293.501 467.605 292.966 467.148 292.569 466.554C292.173 465.953 291.974 465.228 291.974 464.378C291.974 463.63 292.122 463.024 292.416 462.559C292.711 462.089 293.105 461.72 293.598 461.454C294.091 461.188 294.634 460.989 295.229 460.859C295.83 460.723 296.433 460.616 297.04 460.536C297.833 460.434 298.476 460.358 298.969 460.307C299.468 460.25 299.83 460.157 300.057 460.026C300.289 459.896 300.405 459.669 300.405 459.346V459.278C300.405 458.44 300.176 457.788 299.717 457.324C299.264 456.859 298.575 456.627 297.652 456.627C296.694 456.627 295.943 456.836 295.399 457.256C294.855 457.675 294.473 458.122 294.252 458.598L292.348 457.919C292.688 457.125 293.141 456.508 293.708 456.066C294.28 455.618 294.904 455.306 295.578 455.131C296.258 454.95 296.926 454.859 297.584 454.859C298.003 454.859 298.485 454.91 299.028 455.012C299.578 455.108 300.108 455.309 300.618 455.615C301.133 455.921 301.561 456.383 301.901 457.001C302.241 457.618 302.411 458.445 302.411 459.482V468.083H300.405V466.316H300.303C300.167 466.599 299.941 466.902 299.623 467.225C299.306 467.548 298.884 467.823 298.357 468.049C297.83 468.276 297.187 468.389 296.428 468.389ZM296.734 466.588C297.527 466.588 298.196 466.432 298.74 466.12C299.289 465.808 299.703 465.406 299.98 464.913C300.264 464.42 300.405 463.902 300.405 463.358V461.522C300.32 461.624 300.133 461.718 299.844 461.803C299.561 461.882 299.232 461.953 298.858 462.015C298.49 462.072 298.13 462.123 297.779 462.168C297.433 462.208 297.153 462.242 296.938 462.27C296.416 462.338 295.929 462.449 295.476 462.601C295.028 462.749 294.666 462.973 294.388 463.273C294.116 463.568 293.98 463.97 293.98 464.48C293.98 465.177 294.238 465.704 294.753 466.061C295.275 466.412 295.935 466.588 296.734 466.588ZM311.375 468.355C310.152 468.355 309.098 468.066 308.214 467.488C307.33 466.911 306.65 466.114 306.174 465.1C305.698 464.086 305.46 462.927 305.46 461.624C305.46 460.298 305.704 459.128 306.191 458.114C306.684 457.094 307.37 456.298 308.248 455.726C309.132 455.148 310.163 454.859 311.341 454.859C312.259 454.859 313.087 455.029 313.823 455.369C314.56 455.709 315.163 456.185 315.633 456.797C316.104 457.409 316.396 458.122 316.509 458.938H314.503C314.35 458.343 314.01 457.817 313.483 457.358C312.962 456.893 312.259 456.661 311.375 456.661C310.594 456.661 309.908 456.865 309.319 457.273C308.735 457.675 308.279 458.244 307.95 458.981C307.627 459.712 307.466 460.57 307.466 461.556C307.466 462.565 307.625 463.443 307.942 464.191C308.265 464.939 308.718 465.519 309.302 465.933C309.891 466.347 310.582 466.554 311.375 466.554C311.897 466.554 312.37 466.463 312.795 466.282C313.22 466.1 313.58 465.84 313.874 465.5C314.169 465.16 314.378 464.752 314.503 464.276H316.509C316.396 465.046 316.115 465.74 315.667 466.358C315.226 466.97 314.639 467.457 313.908 467.82C313.183 468.177 312.339 468.355 311.375 468.355ZM325.118 455.029V456.729H318.353V455.029H325.118ZM320.325 451.901H322.331V464.344C322.331 464.91 322.413 465.335 322.577 465.619C322.747 465.896 322.963 466.083 323.223 466.18C323.489 466.27 323.77 466.316 324.065 466.316C324.286 466.316 324.467 466.304 324.608 466.282C324.75 466.253 324.863 466.231 324.948 466.214L325.356 468.015C325.22 468.066 325.031 468.117 324.787 468.168C324.543 468.225 324.235 468.253 323.861 468.253C323.294 468.253 322.739 468.132 322.195 467.888C321.656 467.644 321.209 467.273 320.852 466.775C320.501 466.276 320.325 465.647 320.325 464.888V451.901ZM337.149 457.953L335.347 458.462C335.234 458.162 335.067 457.87 334.846 457.587C334.63 457.298 334.336 457.06 333.962 456.873C333.588 456.686 333.109 456.593 332.525 456.593C331.726 456.593 331.061 456.777 330.528 457.145C330.001 457.508 329.738 457.969 329.738 458.53C329.738 459.029 329.919 459.423 330.282 459.712C330.644 460.001 331.211 460.242 331.981 460.434L333.919 460.91C335.086 461.193 335.956 461.627 336.528 462.211C337.101 462.788 337.387 463.534 337.387 464.446C337.387 465.194 337.172 465.862 336.741 466.452C336.316 467.041 335.721 467.505 334.956 467.845C334.191 468.185 333.302 468.355 332.287 468.355C330.956 468.355 329.854 468.066 328.981 467.488C328.109 466.911 327.556 466.066 327.324 464.956L329.228 464.48C329.409 465.182 329.752 465.709 330.256 466.061C330.766 466.412 331.432 466.588 332.253 466.588C333.188 466.588 333.931 466.389 334.48 465.993C335.035 465.59 335.313 465.109 335.313 464.548C335.313 464.094 335.154 463.715 334.837 463.409C334.52 463.097 334.033 462.865 333.375 462.712L331.2 462.202C330.004 461.919 329.126 461.48 328.565 460.885C328.01 460.284 327.732 459.533 327.732 458.632C327.732 457.896 327.939 457.244 328.352 456.678C328.772 456.111 329.341 455.666 330.061 455.343C330.786 455.02 331.607 454.859 332.525 454.859C333.817 454.859 334.831 455.142 335.568 455.709C336.31 456.275 336.837 457.023 337.149 457.953Z" fill="white"/>
<path d="M262.946 131.147V139H260.94V121.594H262.946V127.985H263.116C263.422 127.311 263.881 126.776 264.493 126.379C265.11 125.977 265.932 125.775 266.957 125.775C267.847 125.775 268.626 125.954 269.295 126.311C269.963 126.662 270.482 127.203 270.85 127.934C271.224 128.659 271.411 129.583 271.411 130.705V139H269.405V130.841C269.405 129.804 269.136 129.002 268.598 128.436C268.065 127.863 267.326 127.577 266.379 127.577C265.722 127.577 265.133 127.716 264.612 127.994C264.096 128.271 263.688 128.676 263.388 129.209C263.093 129.742 262.946 130.388 262.946 131.147ZM280.384 139.272C279.205 139.272 278.171 138.992 277.282 138.431C276.398 137.87 275.706 137.085 275.208 136.076C274.715 135.068 274.468 133.889 274.468 132.541C274.468 131.181 274.715 129.994 275.208 128.98C275.706 127.965 276.398 127.178 277.282 126.617C278.171 126.056 279.205 125.775 280.384 125.775C281.562 125.775 282.594 126.056 283.477 126.617C284.367 127.178 285.058 127.965 285.551 128.98C286.05 129.994 286.299 131.181 286.299 132.541C286.299 133.889 286.05 135.068 285.551 136.076C285.058 137.085 284.367 137.87 283.477 138.431C282.594 138.992 281.562 139.272 280.384 139.272ZM280.384 137.47C281.279 137.47 282.016 137.241 282.594 136.782C283.171 136.323 283.599 135.719 283.877 134.971C284.154 134.224 284.293 133.413 284.293 132.541C284.293 131.668 284.154 130.855 283.877 130.101C283.599 129.348 283.171 128.739 282.594 128.274C282.016 127.81 281.279 127.577 280.384 127.577C279.489 127.577 278.752 127.81 278.174 128.274C277.596 128.739 277.168 129.348 276.891 130.101C276.613 130.855 276.474 131.668 276.474 132.541C276.474 133.413 276.613 134.224 276.891 134.971C277.168 135.719 277.596 136.323 278.174 136.782C278.752 137.241 279.489 137.47 280.384 137.47ZM289.361 139V125.945H291.299V127.985H291.469C291.741 127.288 292.18 126.747 292.786 126.362C293.392 125.971 294.12 125.775 294.97 125.775C295.831 125.775 296.548 125.971 297.121 126.362C297.698 126.747 298.149 127.288 298.472 127.985H298.608C298.942 127.311 299.444 126.776 300.112 126.379C300.781 125.977 301.583 125.775 302.517 125.775C303.685 125.775 304.639 126.141 305.382 126.872C306.124 127.597 306.495 128.727 306.495 130.263V139H304.489V130.263C304.489 129.3 304.226 128.611 303.699 128.198C303.172 127.784 302.551 127.577 301.837 127.577C300.92 127.577 300.209 127.855 299.704 128.41C299.2 128.96 298.948 129.657 298.948 130.501V139H296.908V130.059C296.908 129.317 296.667 128.719 296.186 128.266C295.704 127.807 295.084 127.577 294.324 127.577C293.803 127.577 293.316 127.716 292.862 127.994C292.415 128.271 292.052 128.657 291.775 129.15C291.503 129.637 291.367 130.201 291.367 130.841V139H289.361ZM315.636 139.272C314.378 139.272 313.293 138.994 312.381 138.439C311.474 137.878 310.774 137.096 310.281 136.093C309.794 135.085 309.55 133.912 309.55 132.575C309.55 131.238 309.794 130.059 310.281 129.039C310.774 128.014 311.46 127.215 312.338 126.642C313.222 126.064 314.253 125.775 315.432 125.775C316.112 125.775 316.783 125.889 317.446 126.115C318.109 126.342 318.712 126.71 319.256 127.22C319.8 127.725 320.234 128.393 320.557 129.226C320.88 130.059 321.041 131.085 321.041 132.303V133.153H310.978V131.419H319.001C319.001 130.682 318.854 130.025 318.559 129.447C318.27 128.869 317.857 128.413 317.319 128.079C316.786 127.744 316.157 127.577 315.432 127.577C314.633 127.577 313.942 127.776 313.358 128.172C312.78 128.563 312.335 129.073 312.024 129.702C311.712 130.331 311.556 131.005 311.556 131.725V132.881C311.556 133.867 311.726 134.702 312.066 135.388C312.412 136.068 312.891 136.586 313.502 136.943C314.114 137.295 314.825 137.47 315.636 137.47C316.163 137.47 316.639 137.397 317.064 137.249C317.494 137.096 317.865 136.87 318.177 136.569C318.489 136.263 318.729 135.884 318.899 135.43L320.837 135.974C320.633 136.632 320.29 137.21 319.809 137.708C319.327 138.201 318.732 138.586 318.024 138.864C317.316 139.136 316.52 139.272 315.636 139.272Z" fill="white"/>
<path d="M122.677 468.389C121.85 468.389 121.099 468.234 120.425 467.922C119.751 467.605 119.215 467.148 118.819 466.554C118.422 465.953 118.224 465.228 118.224 464.378C118.224 463.63 118.371 463.024 118.666 462.559C118.96 462.089 119.354 461.72 119.847 461.454C120.34 461.188 120.884 460.989 121.479 460.859C122.08 460.723 122.683 460.616 123.289 460.536C124.083 460.434 124.726 460.358 125.219 460.307C125.717 460.25 126.08 460.157 126.306 460.026C126.539 459.896 126.655 459.669 126.655 459.346V459.278C126.655 458.44 126.425 457.788 125.967 457.324C125.513 456.859 124.825 456.627 123.901 456.627C122.944 456.627 122.193 456.836 121.649 457.256C121.105 457.675 120.723 458.122 120.502 458.598L118.598 457.919C118.938 457.125 119.391 456.508 119.958 456.066C120.53 455.618 121.153 455.306 121.827 455.131C122.507 454.95 123.176 454.859 123.833 454.859C124.253 454.859 124.734 454.91 125.278 455.012C125.828 455.108 126.357 455.309 126.867 455.615C127.383 455.921 127.811 456.383 128.151 457.001C128.491 457.618 128.661 458.445 128.661 459.482V468.083H126.655V466.316H126.553C126.417 466.599 126.19 466.902 125.873 467.225C125.556 467.548 125.134 467.823 124.607 468.049C124.08 468.276 123.437 468.389 122.677 468.389ZM122.983 466.588C123.777 466.588 124.445 466.432 124.989 466.12C125.539 465.808 125.952 465.406 126.23 464.913C126.513 464.42 126.655 463.902 126.655 463.358V461.522C126.57 461.624 126.383 461.718 126.094 461.803C125.811 461.882 125.482 461.953 125.108 462.015C124.74 462.072 124.38 462.123 124.029 462.168C123.683 462.208 123.403 462.242 123.187 462.27C122.666 462.338 122.179 462.449 121.725 462.601C121.278 462.749 120.915 462.973 120.638 463.273C120.366 463.568 120.23 463.97 120.23 464.48C120.23 465.177 120.487 465.704 121.003 466.061C121.524 466.412 122.184 466.588 122.983 466.588ZM132.594 468.083V450.677H134.599V457.103H134.769C134.917 456.876 135.121 456.587 135.381 456.236C135.648 455.879 136.027 455.561 136.52 455.284C137.019 455 137.693 454.859 138.543 454.859C139.642 454.859 140.611 455.134 141.45 455.683C142.288 456.233 142.943 457.012 143.413 458.02C143.883 459.029 144.118 460.219 144.118 461.59C144.118 462.973 143.883 464.171 143.413 465.185C142.943 466.194 142.291 466.976 141.458 467.531C140.625 468.081 139.665 468.355 138.577 468.355C137.738 468.355 137.067 468.217 136.563 467.939C136.058 467.656 135.67 467.335 135.398 466.978C135.126 466.616 134.917 466.316 134.769 466.078H134.531V468.083H132.594ZM134.565 461.556C134.565 462.542 134.71 463.412 134.999 464.165C135.288 464.913 135.71 465.5 136.265 465.925C136.821 466.344 137.5 466.554 138.305 466.554C139.144 466.554 139.843 466.333 140.404 465.891C140.971 465.443 141.396 464.842 141.679 464.089C141.968 463.33 142.113 462.485 142.113 461.556C142.113 460.638 141.971 459.811 141.688 459.074C141.41 458.332 140.988 457.746 140.421 457.315C139.86 456.879 139.155 456.661 138.305 456.661C137.489 456.661 136.804 456.867 136.248 457.281C135.693 457.689 135.274 458.261 134.99 458.998C134.707 459.729 134.565 460.582 134.565 461.556ZM152.49 468.355C151.311 468.355 150.277 468.075 149.388 467.514C148.504 466.953 147.813 466.168 147.314 465.16C146.821 464.151 146.575 462.973 146.575 461.624C146.575 460.264 146.821 459.077 147.314 458.063C147.813 457.049 148.504 456.261 149.388 455.7C150.277 455.139 151.311 454.859 152.49 454.859C153.668 454.859 154.7 455.139 155.584 455.7C156.473 456.261 157.164 457.049 157.657 458.063C158.156 459.077 158.405 460.264 158.405 461.624C158.405 462.973 158.156 464.151 157.657 465.16C157.164 466.168 156.473 466.953 155.584 467.514C154.7 468.075 153.668 468.355 152.49 468.355ZM152.49 466.554C153.385 466.554 154.122 466.324 154.7 465.865C155.278 465.406 155.705 464.803 155.983 464.055C156.261 463.307 156.399 462.497 156.399 461.624C156.399 460.752 156.261 459.938 155.983 459.185C155.705 458.431 155.278 457.822 154.7 457.358C154.122 456.893 153.385 456.661 152.49 456.661C151.595 456.661 150.858 456.893 150.28 457.358C149.702 457.822 149.274 458.431 148.997 459.185C148.719 459.938 148.58 460.752 148.58 461.624C148.58 462.497 148.719 463.307 148.997 464.055C149.274 464.803 149.702 465.406 150.28 465.865C150.858 466.324 151.595 466.554 152.49 466.554ZM169.694 462.746V455.029H171.7V468.083H169.694V465.874H169.558C169.252 466.537 168.776 467.1 168.13 467.565C167.484 468.024 166.668 468.253 165.683 468.253C164.867 468.253 164.141 468.075 163.507 467.718C162.872 467.355 162.374 466.811 162.011 466.086C161.648 465.355 161.467 464.434 161.467 463.324V455.029H163.473V463.188C163.473 464.14 163.739 464.899 164.272 465.466C164.81 466.032 165.496 466.316 166.329 466.316C166.827 466.316 167.334 466.188 167.85 465.933C168.371 465.678 168.807 465.287 169.159 464.76C169.516 464.233 169.694 463.562 169.694 462.746ZM181.051 455.029V456.729H174.286V455.029H181.051ZM176.258 451.901H178.263V464.344C178.263 464.91 178.345 465.335 178.51 465.619C178.68 465.896 178.895 466.083 179.156 466.18C179.422 466.27 179.702 466.316 179.997 466.316C180.218 466.316 180.399 466.304 180.541 466.282C180.683 466.253 180.796 466.231 180.881 466.214L181.289 468.015C181.153 468.066 180.963 468.117 180.72 468.168C180.476 468.225 180.167 468.253 179.793 468.253C179.227 468.253 178.671 468.132 178.127 467.888C177.589 467.644 177.141 467.273 176.784 466.775C176.433 466.276 176.258 465.647 176.258 464.888V451.901Z" fill="white"/>
<path d="M400.494 468.355C399.407 468.355 398.446 468.081 397.613 467.531C396.78 466.976 396.129 466.194 395.659 465.185C395.188 464.171 394.953 462.973 394.953 461.59C394.953 460.219 395.188 459.029 395.659 458.02C396.129 457.012 396.783 456.233 397.622 455.683C398.46 455.134 399.429 454.859 400.528 454.859C401.378 454.859 402.05 455 402.543 455.284C403.041 455.561 403.421 455.879 403.682 456.236C403.948 456.587 404.155 456.876 404.302 457.103H404.472V450.677H406.478V468.083H404.54V466.078H404.302C404.155 466.316 403.945 466.616 403.673 466.978C403.401 467.335 403.013 467.656 402.509 467.939C402.004 468.217 401.333 468.355 400.494 468.355ZM400.766 466.554C401.571 466.554 402.251 466.344 402.806 465.925C403.362 465.5 403.784 464.913 404.073 464.165C404.362 463.412 404.506 462.542 404.506 461.556C404.506 460.582 404.364 459.729 404.081 458.998C403.798 458.261 403.379 457.689 402.823 457.281C402.268 456.867 401.582 456.661 400.766 456.661C399.917 456.661 399.208 456.879 398.642 457.315C398.081 457.746 397.659 458.332 397.375 459.074C397.098 459.811 396.959 460.638 396.959 461.556C396.959 462.485 397.101 463.33 397.384 464.089C397.673 464.842 398.098 465.443 398.659 465.891C399.225 466.333 399.928 466.554 400.766 466.554ZM415.733 468.355C414.555 468.355 413.521 468.075 412.631 467.514C411.747 466.953 411.056 466.168 410.557 465.16C410.064 464.151 409.818 462.973 409.818 461.624C409.818 460.264 410.064 459.077 410.557 458.063C411.056 457.049 411.747 456.261 412.631 455.7C413.521 455.139 414.555 454.859 415.733 454.859C416.912 454.859 417.943 455.139 418.827 455.7C419.717 456.261 420.408 457.049 420.901 458.063C421.399 459.077 421.649 460.264 421.649 461.624C421.649 462.973 421.399 464.151 420.901 465.16C420.408 466.168 419.717 466.953 418.827 467.514C417.943 468.075 416.912 468.355 415.733 468.355ZM415.733 466.554C416.629 466.554 417.365 466.324 417.943 465.865C418.521 465.406 418.949 464.803 419.226 464.055C419.504 463.307 419.643 462.497 419.643 461.624C419.643 460.752 419.504 459.938 419.226 459.185C418.949 458.431 418.521 457.822 417.943 457.358C417.365 456.893 416.629 456.661 415.733 456.661C414.838 456.661 414.101 456.893 413.524 457.358C412.946 457.822 412.518 458.431 412.24 459.185C411.963 459.938 411.824 460.752 411.824 461.624C411.824 462.497 411.963 463.307 412.24 464.055C412.518 464.803 412.946 465.406 413.524 465.865C414.101 466.324 414.838 466.554 415.733 466.554ZM426.716 460.23V468.083H424.71V455.029H426.648V457.069H426.818C427.124 456.406 427.589 455.873 428.212 455.471C428.835 455.063 429.64 454.859 430.626 454.859C431.51 454.859 432.283 455.04 432.946 455.403C433.609 455.76 434.125 456.304 434.493 457.035C434.861 457.76 435.045 458.678 435.045 459.788V468.083H433.039V459.924C433.039 458.899 432.773 458.1 432.241 457.528C431.708 456.95 430.977 456.661 430.048 456.661C429.408 456.661 428.835 456.799 428.331 457.077C427.832 457.355 427.439 457.76 427.15 458.292C426.861 458.825 426.716 459.471 426.716 460.23ZM442.552 468.389C441.725 468.389 440.974 468.234 440.3 467.922C439.626 467.605 439.09 467.148 438.693 466.554C438.297 465.953 438.099 465.228 438.099 464.378C438.099 463.63 438.246 463.024 438.541 462.559C438.835 462.089 439.229 461.72 439.722 461.454C440.215 461.188 440.759 460.989 441.354 460.859C441.954 460.723 442.558 460.616 443.164 460.536C443.957 460.434 444.6 460.358 445.093 460.307C445.592 460.25 445.955 460.157 446.181 460.026C446.413 459.896 446.53 459.669 446.53 459.346V459.278C446.53 458.44 446.3 457.788 445.841 457.324C445.388 456.859 444.699 456.627 443.776 456.627C442.818 456.627 442.068 456.836 441.524 457.256C440.98 457.675 440.597 458.122 440.376 458.598L438.473 457.919C438.812 457.125 439.266 456.508 439.832 456.066C440.405 455.618 441.028 455.306 441.702 455.131C442.382 454.95 443.051 454.859 443.708 454.859C444.127 454.859 444.609 454.91 445.153 455.012C445.702 455.108 446.232 455.309 446.742 455.615C447.258 455.921 447.685 456.383 448.025 457.001C448.365 457.618 448.535 458.445 448.535 459.482V468.083H446.53V466.316H446.428C446.292 466.599 446.065 466.902 445.748 467.225C445.43 467.548 445.008 467.823 444.481 468.049C443.954 468.276 443.311 468.389 442.552 468.389ZM442.858 466.588C443.651 466.588 444.32 466.432 444.864 466.12C445.413 465.808 445.827 465.406 446.105 464.913C446.388 464.42 446.53 463.902 446.53 463.358V461.522C446.445 461.624 446.258 461.718 445.969 461.803C445.685 461.882 445.357 461.953 444.983 462.015C444.614 462.072 444.255 462.123 443.903 462.168C443.558 462.208 443.277 462.242 443.062 462.27C442.541 462.338 442.053 462.449 441.6 462.601C441.153 462.749 440.79 462.973 440.512 463.273C440.24 463.568 440.104 463.97 440.104 464.48C440.104 465.177 440.362 465.704 440.878 466.061C441.399 466.412 442.059 466.588 442.858 466.588ZM457.874 455.029V456.729H451.108V455.029H457.874ZM453.08 451.901H455.086V464.344C455.086 464.91 455.168 465.335 455.333 465.619C455.502 465.896 455.718 466.083 455.978 466.18C456.245 466.27 456.525 466.316 456.82 466.316C457.041 466.316 457.222 466.304 457.364 466.282C457.505 466.253 457.619 466.231 457.704 466.214L458.112 468.015C457.976 468.066 457.786 468.117 457.542 468.168C457.299 468.225 456.99 468.253 456.616 468.253C456.049 468.253 455.494 468.132 454.95 467.888C454.412 467.644 453.964 467.273 453.607 466.775C453.256 466.276 453.08 465.647 453.08 464.888V451.901ZM466.224 468.355C464.966 468.355 463.881 468.078 462.969 467.522C462.062 466.961 461.363 466.18 460.87 465.177C460.382 464.168 460.139 462.995 460.139 461.658C460.139 460.321 460.382 459.142 460.87 458.122C461.363 457.097 462.048 456.298 462.926 455.726C463.81 455.148 464.842 454.859 466.02 454.859C466.7 454.859 467.371 454.972 468.034 455.199C468.697 455.425 469.301 455.794 469.845 456.304C470.389 456.808 470.822 457.477 471.145 458.309C471.468 459.142 471.629 460.168 471.629 461.386V462.236H461.567V460.502H469.59C469.59 459.766 469.442 459.108 469.148 458.53C468.859 457.953 468.445 457.496 467.907 457.162C467.374 456.828 466.745 456.661 466.02 456.661C465.221 456.661 464.53 456.859 463.946 457.256C463.368 457.647 462.924 458.156 462.612 458.785C462.3 459.414 462.145 460.089 462.145 460.808V461.964C462.145 462.95 462.314 463.786 462.654 464.471C463 465.151 463.479 465.67 464.091 466.027C464.703 466.378 465.414 466.554 466.224 466.554C466.751 466.554 467.227 466.48 467.652 466.333C468.083 466.18 468.454 465.953 468.765 465.653C469.077 465.347 469.318 464.967 469.488 464.514L471.425 465.058C471.221 465.715 470.879 466.293 470.397 466.792C469.915 467.284 469.321 467.67 468.612 467.947C467.904 468.219 467.108 468.355 466.224 468.355Z" fill="white"/>
</svg>
