<svg width="381" height="374" viewBox="0 0 381 374" fill="none" xmlns="http://www.w3.org/2000/svg">
<g clip-path="url(#clip0_52_40)">
<rect x="76.9951" y="42.9951" width="206.165" height="275.33" rx="11.3058" stroke="white" stroke-width="3.99029"/>
<rect x="132.194" y="83.5631" width="123.699" height="11.9709" rx="5.98544" fill="white"/>
<rect x="104.262" y="155.388" width="123.699" height="11.9709" rx="5.98544" fill="white"/>
<rect x="104.262" y="107.505" width="151.631" height="11.9709" rx="5.98544" fill="white"/>
<rect x="104.262" y="131.447" width="151.631" height="11.9709" rx="5.98544" fill="white"/>
<rect x="104" y="179" width="152" height="14.7097" rx="7.35484" fill="white"/>
<rect x="104" y="254" width="138.33" height="11.9709" rx="5.98544" fill="white"/>
<rect x="104" y="206" width="151.631" height="11.9709" rx="5.98544" fill="white"/>
<rect x="104" y="230" width="151.631" height="11.9709" rx="5.98544" fill="white"/>
<path d="M278.667 324.333H240.667V311.667H278.667V273.667H291.333V311.667H329.333V324.333H291.333V362.333H278.667V324.333Z" fill="#0D6EFD"/>
</g>
<defs>
<clipPath id="clip0_52_40">
<rect width="381" height="374" fill="white"/>
</clipPath>
</defs>
</svg>
