<svg width="381" height="374" viewBox="0 0 381 374" fill="none" xmlns="http://www.w3.org/2000/svg">
<g clip-path="url(#clip0_52_40)">
<rect x="87.9951" y="47.9951" width="206.165" height="275.33" rx="11.3058" stroke="white" stroke-width="3.99029"/>
<rect x="143.194" y="88.5631" width="123.699" height="11.9709" rx="5.98544" fill="white"/>
<rect x="115.262" y="160.388" width="123.699" height="11.9709" rx="5.98544" fill="white"/>
<rect x="115.262" y="112.505" width="151.631" height="11.9709" rx="5.98544" fill="white"/>
<rect x="115.262" y="136.447" width="151.631" height="11.9709" rx="5.98544" fill="white"/>
<rect x="143.194" y="198.961" width="123.699" height="11.9709" rx="5.98544" fill="white"/>
<rect x="115.262" y="272.326" width="102.738" height="8.89078" rx="4.44539" fill="white"/>
<rect x="115.262" y="222.903" width="151.631" height="11.9709" rx="5.98544" fill="white"/>
<rect x="115.262" y="246.845" width="151.631" height="11.9709" rx="5.98544" fill="white"/>
<path d="M327.318 362.767L293.8 329.249C291.14 331.377 288.081 333.061 284.622 334.303C281.164 335.544 277.484 336.165 273.583 336.165C263.917 336.165 255.737 332.818 249.042 326.123C242.347 319.428 239 311.248 239 301.583C239 291.917 242.347 283.737 249.042 277.042C255.737 270.347 263.917 267 273.583 267C283.248 267 291.428 270.347 298.123 277.042C304.818 283.737 308.165 291.917 308.165 301.583C308.165 305.484 307.544 309.164 306.303 312.622C305.061 316.081 303.377 319.14 301.249 321.8L334.767 355.318L327.318 362.767ZM273.583 325.524C280.233 325.524 285.886 323.197 290.541 318.541C295.197 313.886 297.524 308.233 297.524 301.583C297.524 294.932 295.197 289.279 290.541 284.624C285.886 279.968 280.233 277.641 273.583 277.641C266.932 277.641 261.279 279.968 256.624 284.624C251.968 289.279 249.641 294.932 249.641 301.583C249.641 308.233 251.968 313.886 256.624 318.541C261.279 323.197 266.932 325.524 273.583 325.524Z" fill="#0D6EFD"/>
</g>
<defs>
<clipPath id="clip0_52_40">
<rect width="381" height="374" fill="white"/>
</clipPath>
</defs>
</svg>
