<svg width="381" height="374" viewBox="0 0 381 374" fill="none" xmlns="http://www.w3.org/2000/svg">
<rect x="85.9951" y="39.9951" width="206.165" height="275.33" rx="11.3058" stroke="white" stroke-width="3.99029"/>
<path d="M99.7558 118L104.038 73.6623H119.078L123.285 118H114.896L114.266 110.846H108.926L108.371 118H99.7558ZM109.555 103.767H113.586L111.646 81.2199H111.243L109.555 103.767ZM142.38 110.417V105.177H137.14V99.3328H142.38V94.0929H148.225V99.3328H153.465V105.177H148.225V110.417H142.38ZM168.53 118V73.6623H180.546C183.771 73.6623 186.113 74.4517 187.575 76.0304C189.052 77.5923 189.791 80.1786 189.791 83.7895V85.7292C189.791 87.8118 189.414 89.4996 188.658 90.7928C187.919 92.086 186.785 92.9341 185.257 93.3372C187.255 93.841 188.591 95.025 189.262 96.8892C189.951 98.7366 190.295 100.995 190.295 103.666C190.295 106.538 190.027 109.048 189.489 111.198C188.952 113.348 187.978 115.019 186.567 116.211C185.156 117.404 183.149 118 180.546 118H168.53ZM177.196 90.3645H179.009C179.832 90.3645 180.361 90.0454 180.596 89.4072C180.832 88.769 180.949 88.0049 180.949 87.1148V82.6558C180.949 81.2283 180.319 80.5145 179.06 80.5145H177.196V90.3645ZM178.077 110.191C180.378 110.191 181.529 109.099 181.529 106.916V101.373C181.529 100.114 181.335 99.1229 180.949 98.4007C180.58 97.6618 179.874 97.2923 178.833 97.2923H177.196V110.14C177.565 110.174 177.859 110.191 178.077 110.191ZM204.881 95.5289V89.8859H217.83V95.5289H204.881ZM204.881 105.177V99.3328H217.83V105.177H204.881ZM243.702 118.504C239.789 118.504 236.942 117.471 235.162 115.405C233.382 113.34 232.492 110.224 232.492 106.059V101.424H241.586V106.084C241.586 107.26 241.729 108.259 242.014 109.082C242.316 109.888 242.98 110.291 244.004 110.291C245.046 110.291 245.709 109.855 245.994 108.981C246.28 108.091 246.423 106.647 246.423 104.648V103.54C246.423 102.012 246.162 100.676 245.642 99.5344C245.138 98.3923 244.139 97.8213 242.644 97.8213C242.459 97.8213 242.291 97.8297 242.14 97.8465C242.006 97.8465 241.888 97.8549 241.787 97.8717V89.9111C243.316 89.9111 244.483 89.5752 245.289 88.9034C246.095 88.2148 246.498 87.0728 246.498 85.4773C246.498 82.9749 245.776 81.7237 244.332 81.7237C243.391 81.7237 242.753 82.0932 242.417 82.8322C242.098 83.5543 241.939 84.478 241.939 85.6033V86.9384H232.769C232.752 86.7369 232.735 86.4934 232.718 86.2079C232.718 85.9224 232.718 85.6453 232.718 85.3765C232.718 81.3123 233.667 78.3312 235.565 76.4334C237.463 74.5357 240.368 73.5868 244.281 73.5868C251.839 73.5868 255.618 77.5167 255.618 85.3765C255.618 87.5598 255.324 89.3653 254.736 90.7928C254.148 92.2035 253.057 93.1944 251.461 93.7654C252.721 94.37 253.653 95.1426 254.257 96.0831C254.862 97.0236 255.257 98.1908 255.441 99.5848C255.626 100.979 255.719 102.667 255.719 104.648C255.719 109.082 254.786 112.5 252.922 114.901C251.075 117.303 248.001 118.504 243.702 118.504ZM99.7558 196L104.038 151.662H119.078L123.285 196H114.896L114.266 188.846H108.926L108.371 196H99.7558ZM109.555 181.767H113.586L111.646 159.22H111.243L109.555 181.767ZM137.644 183.177V177.333H150.643V183.177H137.644ZM166.262 196V151.662H178.279C181.503 151.662 183.846 152.452 185.307 154.03C186.785 155.592 187.524 158.179 187.524 161.789V163.729C187.524 165.812 187.146 167.5 186.391 168.793C185.652 170.086 184.518 170.934 182.99 171.337C184.988 171.841 186.323 173.025 186.995 174.889C187.684 176.737 188.028 178.995 188.028 181.666C188.028 184.538 187.759 187.048 187.222 189.198C186.684 191.348 185.71 193.019 184.3 194.211C182.889 195.404 180.882 196 178.279 196H166.262ZM174.928 168.365H176.742C177.565 168.365 178.094 168.045 178.329 167.407C178.564 166.769 178.682 166.005 178.682 165.115V160.656C178.682 159.228 178.052 158.515 176.792 158.515H174.928V168.365ZM175.81 188.191C178.111 188.191 179.261 187.099 179.261 184.916V179.373C179.261 178.114 179.068 177.123 178.682 176.401C178.312 175.662 177.607 175.292 176.566 175.292H174.928V188.14C175.298 188.174 175.592 188.191 175.81 188.191ZM202.614 173.529V167.886H215.563V173.529H202.614ZM202.614 183.177V177.333H215.563V183.177H202.614ZM241.913 196.403C240.049 196.403 238.311 196.084 236.699 195.446C235.086 194.791 233.785 193.817 232.794 192.524C231.803 191.23 231.308 189.626 231.308 187.712V182.925H239.848V183.832C239.848 184.571 239.881 185.31 239.948 186.049C240.032 186.788 240.226 187.401 240.528 187.888C240.847 188.375 241.359 188.619 242.065 188.619C243.055 188.619 243.744 188.35 244.13 187.813C244.517 187.258 244.71 186.469 244.71 185.445V176.552C244.29 177.324 243.66 177.954 242.82 178.441C241.981 178.928 240.956 179.172 239.747 179.172C237.312 179.172 235.431 178.685 234.104 177.711C232.777 176.72 231.862 175.25 231.358 173.302C230.854 171.354 230.602 168.919 230.602 165.996C230.602 163.041 230.963 160.463 231.686 158.263C232.408 156.046 233.608 154.324 235.288 153.098C236.984 151.872 239.277 151.259 242.165 151.259C245.256 151.259 247.666 151.788 249.395 152.846C251.125 153.888 252.343 155.466 253.048 157.582C253.77 159.682 254.131 162.318 254.131 165.493V177.484C254.131 180.557 253.997 183.27 253.728 185.621C253.476 187.972 252.939 189.946 252.116 191.541C251.293 193.137 250.067 194.346 248.438 195.169C246.809 195.992 244.634 196.403 241.913 196.403ZM242.367 171.337C243.929 171.337 244.71 170.288 244.71 168.188V162.696C244.71 160.513 243.971 159.421 242.493 159.421C241.452 159.421 240.83 159.866 240.629 160.757C240.427 161.63 240.326 162.755 240.326 164.132V167.71C240.326 170.128 241.006 171.337 242.367 171.337Z" fill="white"/>
<path d="M99.5469 273L102.646 240.917H113.529L116.573 273H110.503L110.047 267.823H106.182L105.781 273H99.5469ZM106.638 262.701H109.555L108.151 246.385H107.859L106.638 262.701ZM126.982 256.74V252.656H136.352V256.74H126.982ZM126.982 263.721V259.492H136.352V263.721H126.982ZM150.68 273V248.281C150.242 248.804 149.641 249.229 148.875 249.557C148.109 249.873 147.386 250.031 146.706 250.031V244.909C147.35 244.812 148.043 244.605 148.784 244.289C149.525 243.961 150.212 243.517 150.844 242.958C151.488 242.387 151.98 241.701 152.32 240.898H157.479V273H150.68ZM159.74 273V271.469C159.74 269.877 159.983 268.449 160.469 267.185C160.967 265.909 161.605 264.73 162.383 263.648C163.161 262.555 163.981 261.485 164.844 260.44C165.682 259.419 166.478 258.374 167.232 257.305C167.997 256.223 168.617 255.056 169.091 253.805C169.577 252.541 169.82 251.125 169.82 249.557C169.82 248.804 169.705 248.16 169.474 247.625C169.255 247.078 168.793 246.805 168.089 246.805C167.019 246.805 166.484 247.759 166.484 249.667V253.586H159.74C159.727 253.306 159.709 252.99 159.685 252.638C159.673 252.286 159.667 251.945 159.667 251.617C159.667 249.308 159.91 247.352 160.396 245.747C160.882 244.131 161.739 242.904 162.966 242.065C164.206 241.214 165.944 240.789 168.18 240.789C170.841 240.789 172.907 241.536 174.378 243.031C175.86 244.526 176.602 246.659 176.602 249.43C176.602 251.313 176.359 252.966 175.872 254.388C175.386 255.798 174.742 257.086 173.94 258.253C173.138 259.407 172.257 260.562 171.297 261.716C170.616 262.53 169.954 263.363 169.31 264.214C168.678 265.064 168.119 265.976 167.633 266.948H176.383V273H159.74ZM187.01 255.208V249.776H193.536V255.208H187.01ZM188.122 273L189.326 268.698H187.01V263.266H193.828V268.534L191.969 273H188.122ZM205.13 273V240.917H213.826C216.159 240.917 217.854 241.488 218.911 242.63C219.981 243.76 220.516 245.632 220.516 248.245V249.648C220.516 251.155 220.242 252.377 219.695 253.312C219.161 254.248 218.34 254.862 217.234 255.154C218.681 255.518 219.647 256.375 220.133 257.724C220.631 259.061 220.88 260.695 220.88 262.628C220.88 264.706 220.686 266.523 220.297 268.078C219.908 269.634 219.203 270.843 218.182 271.706C217.161 272.569 215.709 273 213.826 273H205.13ZM211.401 253.003H212.714C213.309 253.003 213.692 252.772 213.862 252.31C214.032 251.848 214.117 251.295 214.117 250.651V247.424C214.117 246.391 213.661 245.875 212.75 245.875H211.401V253.003ZM212.039 267.349C213.704 267.349 214.536 266.559 214.536 264.979V260.969C214.536 260.057 214.397 259.34 214.117 258.818C213.85 258.283 213.339 258.016 212.586 258.016H211.401V267.312C211.668 267.337 211.881 267.349 212.039 267.349ZM231.435 256.74V252.656H240.805V256.74H231.435ZM231.435 263.721V259.492H240.805V263.721H231.435ZM251.797 263.721V259.492H261.203V263.721H251.797ZM271.156 273.365C268.325 273.365 266.265 272.617 264.977 271.122C263.688 269.628 263.044 267.373 263.044 264.359V261.005H269.625V264.378C269.625 265.228 269.728 265.951 269.935 266.547C270.154 267.13 270.634 267.422 271.375 267.422C272.128 267.422 272.609 267.106 272.815 266.474C273.022 265.83 273.125 264.785 273.125 263.339V262.536C273.125 261.431 272.937 260.464 272.56 259.638C272.195 258.812 271.472 258.398 270.391 258.398C270.257 258.398 270.135 258.405 270.026 258.417C269.929 258.417 269.844 258.423 269.771 258.435V252.674C270.877 252.674 271.721 252.431 272.305 251.945C272.888 251.447 273.18 250.621 273.18 249.466C273.18 247.655 272.657 246.75 271.612 246.75C270.931 246.75 270.47 247.017 270.227 247.552C269.996 248.075 269.88 248.743 269.88 249.557V250.523H263.245C263.233 250.378 263.22 250.201 263.208 249.995C263.208 249.788 263.208 249.588 263.208 249.393C263.208 246.452 263.895 244.295 265.268 242.922C266.642 241.549 268.744 240.862 271.576 240.862C277.044 240.862 279.779 243.706 279.779 249.393C279.779 250.973 279.566 252.28 279.141 253.312C278.715 254.333 277.925 255.05 276.771 255.464C277.682 255.901 278.357 256.46 278.794 257.141C279.232 257.821 279.517 258.666 279.651 259.674C279.785 260.683 279.852 261.905 279.852 263.339C279.852 266.547 279.177 269.02 277.828 270.758C276.491 272.496 274.267 273.365 271.156 273.365Z" fill="white"/>
<path d="M259.958 350.042H266.786L313.625 303.203L306.797 296.375L259.958 343.214V350.042ZM250.375 359.625V339.26L313.625 276.13C314.583 275.252 315.641 274.573 316.799 274.094C317.957 273.615 319.175 273.375 320.453 273.375C321.731 273.375 322.969 273.615 324.167 274.094C325.365 274.573 326.403 275.292 327.281 276.25L333.87 282.958C334.828 283.837 335.527 284.875 335.966 286.073C336.405 287.271 336.625 288.469 336.625 289.667C336.625 290.944 336.405 292.162 335.966 293.32C335.527 294.478 334.828 295.536 333.87 296.495L270.74 359.625H250.375ZM310.151 299.849L306.797 296.375L313.625 303.203L310.151 299.849Z" fill="#0D6EFD"/>
</svg>
